<svg xmlns="http://www.w3.org/2000/svg" version="1.1" x="0px" y="0px" viewBox="0 0 500 625" enable-background="new 0 0 500 500" xml:space="preserve" fill="white">
  <g><path d="M348.214,216.518l-9.521-22.217c-1.621-3.784-4.655-6.819-8.439-8.44l-22.217-9.521l22.217-9.521   c3.784-1.622,6.818-4.647,8.439-8.44l9.521-22.217l9.521,22.217c1.622,3.793,4.639,6.818,8.44,8.44l22.217,9.521l-22.217,9.521   c-3.802,1.622-6.818,4.656-8.44,8.44L348.214,216.518z"/>
    <path d="M276.786,158.482l-4.238-9.87c-0.715-1.691-2.058-3.034-3.74-3.749l-9.879-4.238l9.879-4.229   c1.683-0.724,3.025-2.066,3.74-3.749l4.238-9.879l4.229,9.879c0.724,1.683,2.066,3.025,3.749,3.749l9.879,4.229l-9.879,4.238   c-1.683,0.715-3.025,2.058-3.749,3.749L276.786,158.482z"/><path d="M299.107,323.66c-59.174,0-107.143-47.973-107.143-107.142c0-27.266,10.267-52.072,27.043-70.993   c-60.037,4.447-107.4,54.46-107.4,115.635c0,64.105,51.963,116.072,116.071,116.072c42.733,0,79.999-23.168,100.142-57.582   C318.656,322.195,309.064,323.66,299.107,323.66"/></g>
</svg>
