<svg xmlns="http://www.w3.org/2000/svg" version="1.1" x="0px" y="0px" viewBox="0 0 100 125" enable-background="new 0 0 100 100" xml:space="preserve">
  <path fill="none" stroke="#ffffff" stroke-width="2" stroke-linecap="round" stroke-linejoin="round" stroke-miterlimit="10" d="  M58.756,52.207c-0.806,0-1.583,0.113-2.329,0.305c-1.06-4.74-5.285-8.284-10.344-8.284c-5.234,0-9.571,3.794-10.439,8.779  c-1.152-0.511-2.425-0.801-3.767-0.801c-5.142,0-9.31,4.168-9.31,9.31c0,5.142,4.168,9.31,9.31,9.31c4.265,0,22.85,0,26.879,0  c5.142,0,9.31-4.168,9.31-9.31C68.067,56.376,63.898,52.207,58.756,52.207z"/><path fill="none" stroke="white" stroke-width="2" stroke-linecap="round" stroke-linejoin="round" stroke-miterlimit="10" d="  M71.232,58.403c5.142,0,9.31-4.168,9.31-9.31s-4.168-9.31-9.31-9.31c-0.806,0-1.583,0.113-2.329,0.305  c-1.06-4.74-5.285-8.284-10.344-8.284c-5.234,0-9.571,3.794-10.439,8.779c-1.152-0.511-2.425-0.801-3.767-0.801  c-3.537,0-6.613,1.972-8.189,4.877"/>
</svg>
