<svg xmlns="http://www.w3.org/2000/svg" xmlns:xlink="http://www.w3.org/1999/xlink" version="1.1" x="0px" y="0px" viewBox="0 0 100 125" enable-background="new 0 0 100 100" xml:space="preserve"><path d="M84.949,52.15h-6.571c-0.307-0.73-0.673-1.439-1.111-2.114c0.57-1.313,0.868-2.735,0.868-4.176  c0-3.724-2.01-7.204-5.249-9.083c-2.561-1.479-5.706-1.803-8.488-0.898c-3.455-4.74-8.871-7.521-14.804-7.521  c-3.214,0-6.39,0.857-9.186,2.478c-1.874,1.086-3.521,2.476-4.908,4.14c-2.075,0.127-4.108,0.74-5.923,1.792  c-2.139,1.24-3.855,3.028-5.021,5.123h-9.503c-1.104,0-2,0.896-2,2s0.896,2,2,2h8.042c-0.159,0.824-0.245,1.667-0.245,2.521  c0,1.294,0.195,2.562,0.554,3.775c-0.927,0.174-1.63,0.985-1.63,1.963c0,1.104,0.896,2,2,2h1.549  c1.106,1.567,2.543,2.911,4.253,3.901c0.788,0.456,1.638,0.833,2.538,1.125c0.134,0.42,0.287,0.829,0.448,1.233H15.951  c-1.104,0-2,0.896-2,2s0.896,2,2,2h18.816c3.374,4.63,8.816,7.533,14.826,7.533c3.208,0,6.384-0.855,9.186-2.475  c0.808-0.469,1.586-1.005,2.324-1.603c3.73,1.459,8.078,1.132,11.588-0.902c4.15-2.402,6.729-6.864,6.729-11.644  c0-0.394-0.022-0.783-0.056-1.17h5.585c1.104,0,2-0.896,2-2S86.054,52.15,84.949,52.15z M31.581,40.229  c1.442-0.835,3.076-1.277,4.651-1.279c0.039,0.003,0.158,0.011,0.198,0.012c0.648,0.019,1.263-0.283,1.652-0.803  c1.181-1.582,2.639-2.881,4.332-3.862c2.188-1.268,4.67-1.938,7.18-1.938c5.096,0,9.708,2.628,12.333,7.031  c0.547,0.915,1.716,1.243,2.66,0.739c1.945-1.039,4.364-1.003,6.295,0.111c0.74,0.429,1.374,0.995,1.884,1.651H29.487  C30.098,41.25,30.796,40.684,31.581,40.229z M73.735,45.891c0.137,0,0.27-0.014,0.398-0.04c0,0.003,0.001,0.007,0.001,0.01  c0,1.171-0.318,2.321-0.919,3.326c-0.428,0.715-0.368,1.62,0.15,2.271c0.179,0.225,0.345,0.456,0.5,0.692H27.638  c-0.507-1.166-0.788-2.434-0.788-3.738c0-0.862,0.124-1.709,0.351-2.521H73.735z M75.42,57.32c0,3.356-1.813,6.492-4.733,8.182  c-2.751,1.595-6.174,1.689-9.022,0.236c-0.752-0.385-1.661-0.255-2.275,0.32c-0.808,0.756-1.688,1.412-2.613,1.948  c-2.191,1.267-4.676,1.937-7.182,1.937c-3.569,0-6.876-1.317-9.419-3.533h10.961c1.104,0,2-0.896,2-2s-0.896-2-2-2H36.966  c-0.559-1.038-0.999-2.157-1.295-3.344c-0.182-0.727-0.755-1.291-1.485-1.462c-0.952-0.223-1.828-0.563-2.605-1.014  c-0.23-0.133-0.44-0.29-0.656-0.44H75.34C75.388,56.536,75.42,56.926,75.42,57.32z"/><text x="0" y="115" fill="#000000" font-size="5px" font-weight="bold" font-family="'Helvetica Neue', Helvetica, Arial-Unicode, Arial, Sans-serif">Created by Ema Dimitrova</text><text x="0" y="120" fill="#000000" font-size="5px" font-weight="bold" font-family="'Helvetica Neue', Helvetica, Arial-Unicode, Arial, Sans-serif">from the Noun Project</text></svg>