<svg xmlns="http://www.w3.org/2000/svg" version="1.1" x="0px" y="0px" viewBox="0 0 100 125" enable-background="new 0 0 100 100" xml:space="preserve" fill="white">
  <path fill="#ffffff" d="M78.768,43.959c-0.682-0.682-1.694-0.911-2.605-0.588c-1.139,0.405-2.331,0.61-3.542,0.61  c-5.828,0-10.569-4.741-10.569-10.569c0-1.212,0.205-2.404,0.61-3.542c0.323-0.909,0.094-1.923-0.588-2.605  c-0.683-0.682-1.697-0.91-2.605-0.587c-6.191,2.202-10.351,8.098-10.351,14.67c0,1.518,0.247,2.972,0.658,4.357  c-0.065,0.031-0.133,0.053-0.198,0.086c-2.425-2.83-5.985-4.507-9.803-4.507c-7.12,0-12.912,5.792-12.912,12.912  c0,0.303,0.011,0.606,0.033,0.909c-3.707,1.281-6.396,4.826-6.396,8.924c0,5.206,4.235,9.441,9.441,9.441h30.657  c5.206,0,9.441-4.235,9.441-9.441c0-2.9-1.335-5.507-3.42-7.244c5.771-0.726,10.753-4.643,12.736-10.219  C79.679,45.655,79.45,44.641,78.768,43.959z M60.598,68.468H29.941c-2.449,0-4.441-1.992-4.441-4.441  c0-2.39,1.946-4.379,4.338-4.434c0.776-0.018,1.5-0.395,1.958-1.021c0.459-0.625,0.601-1.429,0.385-2.175  c-0.211-0.729-0.319-1.471-0.319-2.204c0-4.362,3.549-7.912,7.912-7.912c2.916,0,5.587,1.598,6.972,4.17  c0.37,0.688,1.041,1.163,1.812,1.285c0.772,0.12,1.556-0.125,2.119-0.665c0.887-0.851,2.048-1.319,3.269-1.319  c2.608,0,4.73,2.122,4.73,4.73c0,0.577-0.109,1.15-0.324,1.704c-0.295,0.764-0.198,1.625,0.26,2.303  c0.459,0.679,1.221,1.089,2.041,1.1c2.418,0.03,4.386,2.02,4.386,4.437C65.039,66.476,63.047,68.468,60.598,68.468z M64.686,51.915  c-0.473,0-0.935-0.042-1.391-0.103c-1.098-3.835-4.489-6.703-8.592-7.021c-0.377-1.08-0.586-2.237-0.586-3.445  c0-2.784,1.099-5.389,2.947-7.317c0.317,8.094,6.845,14.622,14.939,14.939C70.074,50.816,67.469,51.915,64.686,51.915z"/>
</svg>
